# xmcd
#
# Track frame offsets: 
#        150
#        30667
#        57613
#        91286
#        115640
#        137259
#        167573
#        194722
#        228259
#        253591
#        269703
#        288125
#
# Disc length: 4119 seconds
#
# Revision: 0
# Processed by: cddbd v1.5.2PL0 Copyright (c) Steve Scherf et al.
# Submitted via: ExactAudioCopyFreeDBPlugin 1.0
#
DISCID=a610150c
DTITLE=Tosca - Going Going Going
DYEAR=2017
DGENRE=Pop
TTITLE0=Export Import
TTITLE1=Hausner
TTITLE2=Friday
TTITLE3=Wo-Tan
TTITLE4=China Bar
TTITLE5=Loveboat
TTITLE6=Tommy
TTITLE7=Supersunday
TTITLE8=Amber November
TTITLE9=Dr. Dings
TTITLE10=Olympia
TTITLE11=Shoulder Angel
EXTD=
EXTT0=
EXTT1=
EXTT2=
EXTT3=
EXTT4=
EXTT5=
EXTT6=
EXTT7=
EXTT8=
EXTT9=
EXTT10=
EXTT11=
PLAYORDER=
